<?xml version="1.0" standalone="no"?>
<!DOCTYPE svg PUBLIC "-//W3C//DTD SVG 20010904//EN"
 "http://www.w3.org/TR/2001/REC-SVG-20010904/DTD/svg10.dtd">
<svg version="1.0" xmlns="http://www.w3.org/2000/svg"
 width="512.000000pt" height="512.000000pt" viewBox="0 0 512.000000 512.000000"
 preserveAspectRatio="xMidYMid meet">
<metadata>
Created by potrace 1.14, written by Peter Selinger 2001-2017
</metadata>
<g transform="translate(0.000000,512.000000) scale(0.100000,-0.100000)"
fill="#000000" stroke="none">
<path d="M0 2560 l0 -2560 2560 0 2560 0 0 2560 0 2560 -2560 0 -2560 0 0
-2560z m2277 1621 c12 -11 23 -25 25 -31 2 -8 42 -7 141 2 289 26 588 -31 849
-162 160 -80 270 -161 413 -305 144 -143 225 -253 305 -413 223 -446 223 -978
0 -1424 -72 -144 -161 -268 -279 -391 -103 -107 -105 -109 -102 -152 4 -72
-56 -113 -118 -80 -31 15 -32 15 -76 -15 -25 -17 -89 -53 -143 -80 -446 -223
-978 -223 -1424 0 -307 154 -564 411 -718 718 -223 446 -223 978 0 1424 183
366 510 656 892 793 85 30 91 34 103 69 7 21 21 44 32 51 26 21 76 18 100 -4z"/>
<path d="M2495 4145 c-11 -2 -55 -7 -98 -10 -75 -7 -78 -8 -91 -38 -18 -44
-42 -61 -83 -61 -26 0 -42 7 -58 26 l-22 25 -84 -28 c-357 -121 -689 -403
-874 -744 -127 -233 -188 -480 -188 -755 0 -161 12 -256 50 -405 142 -547 581
-986 1128 -1128 149 -38 244 -50 405 -50 275 0 525 62 755 188 138 76 139 78
136 128 -2 38 1 47 26 67 28 22 64 24 107 5 15 -7 36 10 110 87 238 246 385
543 437 883 16 103 16 347 0 450 -54 349 -205 649 -451 895 -243 243 -552 400
-885 449 -77 11 -289 22 -320 16z m-405 -284 c-11 -17 -34 -58 -50 -93 -95
-203 -95 -464 0 -667 113 -241 355 -420 624 -462 98 -16 273 -6 366 21 41 12
113 42 160 66 253 134 413 375 436 661 l7 86 19 -24 c50 -62 152 -225 182
-292 90 -197 130 -379 130 -597 0 -218 -40 -400 -130 -597 -30 -67 -132 -230
-182 -292 l-19 -23 -6 89 c-44 612 -788 941 -1318 582 -348 -235 -447 -686
-226 -1027 l46 -70 -52 17 c-325 113 -647 407 -791 724 -90 197 -130 379 -130
597 0 375 133 706 392 972 105 108 180 169 300 241 68 41 232 116 255 117 5 0
-1 -13 -13 -29z m755 -508 c25 -37 45 -72 45 -78 0 -10 -87 -145 -94 -145 -4
0 -96 138 -96 145 0 7 92 145 96 145 2 0 24 -30 49 -67z"/>
</g>
</svg>
