<?xml version="1.0"?>
<svg xmlns="http://www.w3.org/2000/svg" xmlns:xlink="http://www.w3.org/1999/xlink" xmlns:svgjs="http://svgjs.com/svgjs" version="1.1" width="512" height="512" x="0" y="0" viewBox="0 0 512.026 512.026" style="enable-background:new 0 0 512 512" xml:space="preserve" class=""><g><g xmlns="http://www.w3.org/2000/svg"><g><path d="m450.801 180.546c-12.296-41.52-37.138-77.062-71.84-102.784-2.755-2.04-6.363-2.528-9.562-1.293-3.197 1.237-5.539 4.026-6.203 7.391-1.7 8.61-3.911 17.138-6.612 25.515-3.082-5.483-6.375-10.85-9.861-16.067-3.068-4.593-9.277-5.828-13.87-2.759-4.592 3.067-5.827 9.277-2.759 13.87 7.157 10.713 13.427 22.105 18.633 33.861 1.603 3.618 5.188 5.95 9.144 5.95h.031c3.969-.013 7.554-2.37 9.138-6.009 4.883-11.216 8.929-22.806 12.089-34.611 24.907 22.015 42.927 50.299 52.497 82.616 6.209 20.967 8.49 42.596 6.868 63.998-5.67-11.626-13.291-22.357-22.707-31.773v-.001c-22.283-22.282-51.909-34.554-83.422-34.554-28.287 0-55.054 9.888-76.354 28.028-46.303-39.36-116.059-37.183-159.77 6.526-3.903 3.903-7.466 8.018-10.707 12.3-1.224-36.357 5.657-70.942 20.324-101.692 14.722 9.067 31.145 13.809 48.105 13.809 51.621 0 93.618-41.996 93.618-93.617 0-6.879-.763-13.734-2.252-20.417 8.438 4.333 16.607 9.201 24.44 14.567 4.556 3.121 10.78 1.959 13.901-2.599 3.121-4.556 1.958-10.78-2.599-13.901-15.482-10.606-32.18-19.428-49.628-26.219-3.897-1.517-8.326-.448-11.103 2.678-2.777 3.127-3.316 7.65-1.351 11.342 5.62 10.554 8.591 22.501 8.591 34.549 0 40.593-33.025 73.617-73.618 73.617-16.298 0-32.048-5.675-45.546-16.412-2.309-1.837-5.309-2.562-8.201-1.977-2.891.582-5.378 2.412-6.795 4.999-24.434 44.608-32.991 98.219-25.024 153.2.047.324-.048-.323 0 0-14.536 41.478-5.256 89.515 27.844 122.617l103.37 103.37c15.066 15.065 35.097 23.362 56.403 23.362 21.307 0 41.337-8.297 56.402-23.362l103.37-103.37c22.283-22.283 34.555-51.91 34.555-83.422 0-2.231-.068-4.452-.191-6.663 11.575-37.368 11.811-76.982.652-114.663zm-49.158 190.605-103.37 103.37c-11.288 11.288-26.296 17.505-42.26 17.505s-30.972-6.217-42.261-17.505l-103.37-103.37c-38.201-38.201-38.2-100.358 0-138.56 19.1-19.101 44.189-28.65 69.279-28.65 25.089 0 50.179 9.55 69.28 28.65 3.906 3.905 10.237 3.904 14.142 0 18.505-18.506 43.108-28.696 69.279-28.696s50.774 10.191 69.279 28.697c18.506 18.505 28.697 43.108 28.697 69.279.002 26.171-10.189 50.774-28.695 69.28z" fill="#ffffff" data-original="#000000" style="" class=""/><path d="m152.264 100.826c9.255 0 17.957-3.604 24.501-10.149 12.074-12.073 13.487-31.504 3.288-45.198l-19.769-26.541c-1.887-2.533-4.861-4.026-8.02-4.026s-6.133 1.493-8.02 4.026l-19.768 26.541c-10.201 13.694-8.787 33.125 3.287 45.197 6.544 6.545 15.245 10.15 24.501 10.15zm-11.749-43.401 11.749-15.773 11.749 15.773c4.312 5.789 3.715 14.004-1.39 19.108-2.767 2.768-6.446 4.292-10.358 4.292-3.913 0-7.591-1.524-10.359-4.292-5.106-5.104-5.704-13.319-1.391-19.108z" fill="#ffffff" data-original="#000000" style="" class=""/><path d="m502.013 37.009h-10.885c-5.522 0-10 4.478-10 10s4.478 10 10 10h10.885c5.522 0 10-4.478 10-10s-4.478-10-10-10z" fill="#ffffff" data-original="#000000" style="" class=""/><path d="m427.995 57.009h10.885c5.522 0 10-4.478 10-10s-4.478-10-10-10h-10.885c-5.522 0-10 4.478-10 10s4.478 10 10 10z" fill="#ffffff" data-original="#000000" style="" class=""/><path d="m465.004 63.133c-5.522 0-10 4.478-10 10v10.885c0 5.522 4.478 10 10 10s10-4.478 10-10v-10.885c0-5.522-4.477-10-10-10z" fill="#ffffff" data-original="#000000" style="" class=""/><path d="m465.004.001c-5.522 0-10 4.478-10 10v10.885c0 5.522 4.478 10 10 10s10-4.478 10-10v-10.885c0-5.523-4.477-10-10-10z" fill="#ffffff" data-original="#000000" style="" class=""/><path d="m73.146 67.868h10.885c5.523 0 10-4.478 10-10s-4.477-10-10-10h-10.885c-5.523 0-10 4.478-10 10s4.477 10 10 10z" fill="#ffffff" data-original="#000000" style="" class=""/><path d="m20.898 47.868h-10.885c-5.523 0-10 4.478-10 10s4.477 10 10 10h10.885c5.523 0 10-4.478 10-10s-4.477-10-10-10z" fill="#ffffff" data-original="#000000" style="" class=""/><path d="m47.022 73.992c-5.523 0-10 4.478-10 10v10.885c0 5.522 4.477 10 10 10s10-4.478 10-10v-10.885c0-5.523-4.477-10-10-10z" fill="#ffffff" data-original="#000000" style="" class=""/><path d="m47.022 10.859c-5.523 0-10 4.478-10 10v10.885c0 5.522 4.477 10 10 10s10-4.478 10-10v-10.885c0-5.522-4.477-10-10-10z" fill="#ffffff" data-original="#000000" style="" class=""/><circle cx="309.952" cy="64.001" r="10" fill="#ffffff" data-original="#000000" style="" class=""/></g></g></g></svg>
