<?xml version="1.0" encoding="utf-8"?>
<!-- Generator: Adobe Illustrator 16.0.0, SVG Export Plug-In . SVG Version: 6.00 Build 0)  -->
<!DOCTYPE svg PUBLIC "-//W3C//DTD SVG 1.1//EN" "http://www.w3.org/Graphics/SVG/1.1/DTD/svg11.dtd">
<svg version="1.1" id="Layer_1" xmlns="http://www.w3.org/2000/svg" xmlns:xlink="http://www.w3.org/1999/xlink" x="0px" y="0px"
	 width="130px" height="130px" viewBox="0 0 130 130" enable-background="new 0 0 130 130" xml:space="preserve">
<g>
	<path fill="#FFFFFF" d="M41.826,98.467c0-16.137,14.009-29.219,31.291-29.219c17.279,0,31.289,13.082,31.289,29.219
		c0,0.496-0.014,0.99-0.039,1.48c7.807-9.182,12.52-21.078,12.52-34.074c0-13.035-4.74-24.961-12.588-34.155
		c0.02,0.447,0.035,0.896,0.035,1.347c0,16.759-13.977,30.345-31.217,30.345c-17.241,0-31.218-13.586-31.218-30.345
		c0-6.313,1.985-12.175,5.379-17.031c-20.742,7.062-35.664,26.707-35.664,49.839c0,23.419,15.298,43.265,36.445,50.095
		C44.146,111.09,41.826,105.031,41.826,98.467z"/>
	<circle fill="none" stroke="#FFFFFF" stroke-width="0.3746" stroke-miterlimit="10" cx="65" cy="65.874" r="59.658"/>
	<circle fill="#FFFFFF" cx="51.71" cy="7.537" r="3.068"/>
	<circle fill="#FFFFFF" cx="101.338" cy="113.176" r="3.068"/>
	<polygon fill="#FFFFFF" points="76.713,39.076 76.713,39.076 76.713,39.076 73.117,33.575 69.52,39.076 69.52,39.076 69.52,39.076 
		69.52,39.076 69.52,39.076 73.117,44.576 76.713,39.076 76.713,39.076 	"/>
</g>
</svg>
